REM MD5 bd61d8f6018dcc6d2cdc05275abcf856
FILE "Koukai Sarenakatta Shuki (Japan).bin" BINARY
  TRACK 01 MODE2/2352
    INDEX 01 00:00:00
  TRACK 02 AUDIO
    INDEX 00 42:05:73
    INDEX 01 42:07:73
  TRACK 03 AUDIO
    INDEX 00 43:43:49
    INDEX 01 43:45:49
REM LEADOUT 47:04:31
